<svg width="22" height="22" viewBox="0 0 22 22" fill="none" xmlns="http://www.w3.org/2000/svg">
<path d="M11.7535 17.9035L20.0035 6.00993C20.0986 5.87267 20.1543 5.71205 20.1646 5.54545C20.1748 5.37885 20.1392 5.21263 20.0616 5.06478C19.984 4.91693 19.8674 4.79309 19.7243 4.70666C19.5812 4.62023 19.4172 4.57452 19.25 4.57446L2.74996 4.57446C2.58264 4.57435 2.41849 4.61994 2.27529 4.7063C2.13209 4.79266 2.0153 4.91649 1.93758 5.06437C1.85986 5.21225 1.82418 5.37854 1.83439 5.54522C1.84461 5.7119 1.90034 5.87261 1.99554 6.00993L10.2455 17.9035C10.3303 18.0247 10.4431 18.1237 10.5743 18.192C10.7056 18.2603 10.8515 18.296 10.9995 18.296C11.1475 18.296 11.2934 18.2603 11.4247 18.192C11.5559 18.1237 11.6687 18.0247 11.7535 17.9035Z" fill="#F45D48"/>
</svg>
