<svg width="22" height="22" viewBox="0 0 22 22" fill="none" xmlns="http://www.w3.org/2000/svg">
<path d="M10.2465 4.01901L1.99654 15.8102C1.90138 15.9463 1.84566 16.1056 1.8354 16.2707C1.82515 16.4359 1.86076 16.6007 1.93836 16.7472C2.01597 16.8938 2.13263 17.0166 2.2757 17.1023C2.41877 17.188 2.5828 17.2333 2.75004 17.2333L19.25 17.2333C19.4173 17.2335 19.5815 17.1883 19.7247 17.1026C19.8679 17.017 19.9847 16.8943 20.0624 16.7477C20.1401 16.601 20.1758 16.4362 20.1656 16.2709C20.1554 16.1057 20.0997 15.9464 20.0045 15.8102L11.7545 4.01901C11.6697 3.89888 11.5569 3.80078 11.4257 3.73303C11.2944 3.66529 11.1485 3.62992 11.0005 3.62992C10.8524 3.62992 10.7066 3.66529 10.5753 3.73303C10.4441 3.80078 10.3313 3.89888 10.2465 4.01901Z" fill="#22CC13"/>
</svg>
